# xmcd CD database file
#
# Track frame offsets:
#	150
#	85475
#	148488
#	229538
#
# Disc length: 4114 seconds
#
# Revision: 0
# Processed by: cddbd v1.5.1PL2 Copyright (c) Steve Scherf et al.
# Submitted via: CDex 1.51
#
DISCID=33101004
DTITLE=徐柳仙 - 紀念專輯
DYEAR=1987
DGENRE=Blues
TTITLE0=再折長亭柳
TTITLE1=一曲難忘
TTITLE2=絕代佳人
TTITLE3=情深恨更深
EXTD=YEAR: 1987
EXTT0=
EXTT1=
EXTT2=
EXTT3=
PLAYORDER=
